PathFileType	4	(X/Y/Z)	21_coords_data.trc
DataRate	CameraRate	NumFrames	NumMarkers	Units	OrigDataRate	OrigDataStartFrame	OrigNumFrames
30.0	30.0	7	21	m	30.0	42	62
Frame#	Time	THUMB_TIP	THUMB_IP	THUMB_MCP	THUMB_CMC	INDEX_TIP	INDEX_DIP	INDEX_PIP	INDEX_MCP	MIDDLE_TIP	MIDDLE_DIP	MIDDLE_PIP	MIDDLE_MCP	RING_TIP	RING_DIP	RING_PIP	RING_MCP	PINKY_TIP	PINKY_DIP	PINKY_PIP	PINKY_MCP	WRIST
X1	Y1	Z1	X2	Y2	Z2	X3	Y3	Z3	X4	Y4	Z4	X5	Y5	Z5	X6	Y6	Z6	X7	Y7	Z7	X8	Y8	Z8	X9	Y9	Z9	X10	Y10	Z10	X11	Y11	Z11	X12	Y12	Z12	X13	Y13	Z13	X14	Y14	Z14	X15	Y15	Z15	X16	Y16	Z16	X17	Y17	Z17	X18	Y18	Z18	X19	Y19	Z19	X20	Y20	Z20	X21	Y21	Z21
41	1.3666666666666667	-0.011925999641418456	-0.01492609977722168	0.9058060302734375	-0.02282390022277832	0.0021589300632476804	0.9273359985351562	-0.03776160049438477	0.01767930030822754	0.9524099731445312	-0.052474899291992186	0.04344060134887695	0.9751719970703125	0.03001689910888672	0.04975439834594726	0.8639739990234375	0.008984539985656738	0.04785260009765625	0.874843994140625	-0.012561100006103516	0.046584701538085936	0.8861209716796875	-0.0450260009765625	0.045923500061035155	0.9147030029296875	0.03325099945068359	0.08248500061035156	0.8680700073242188	0.010052599906921388	0.07875370025634766	0.8744249877929687	-0.01769000053405762	0.07542900085449218	0.8840120239257813	-0.05007360076904297	0.06949299621582031	0.9157880249023438	0.026985599517822267	0.10249400329589843	0.8782440185546875	0.004291759967803955	0.09972429656982422	0.8851439819335938	-0.02176609992980957	0.09587770080566406	0.8947979736328125	-0.05037820053100586	0.08811299896240235	0.923864013671875	0.0071790099143981935	0.1225250015258789	0.8941790161132812	-0.010545299530029298	0.11855599975585937	0.9044669799804688	-0.02654100036621094	0.11350099945068359	0.91472802734375	-0.04655970001220703	0.10349500274658203	0.9355590209960938	-0.0834916000366211	0.06172439956665039	0.9967689819335938
42	1.4	-0.012443400382995606	-0.014910099983215332	0.9057429809570312	-0.02301959991455078	0.0023413898944854732	0.9273569946289062	-0.037776500701904296	0.017969100952148438	0.9525	-0.05233689880371094	0.043424198150634766	0.9749039916992187	0.02807229995727539	0.05026179885864258	0.860364990234375	0.008044249534606933	0.04848519897460937	0.8730980224609375	-0.012634499549865723	0.04726110076904297	0.8855880126953125	-0.044290199279785156	0.04668679809570313	0.9149210205078125	0.031263299942016605	0.08410089874267578	0.8632739868164062	0.008783320426940917	0.07995110321044922	0.8719429931640625	-0.018176900863647462	0.07619490051269531	0.883448974609375	-0.04938090133666992	0.07013839721679688	0.9161320190429687	0.02525480079650879	0.104677001953125	0.874364990234375	0.0032231600284576413	0.10116500091552734	0.8831209716796875	-0.02209720039367676	0.09670089721679688	0.894781005859375	-0.04960459899902344	0.08867060089111328	0.9243309936523437	0.005834189891815186	0.12461000061035156	0.8926599731445313	-0.011007200241088868	0.11988800048828124	0.9041530151367188	-0.026288200378417968	0.11430999755859375	0.9150330200195312	-0.045886699676513674	0.10400299835205078	0.936281982421875	-0.08353450012207031	0.0621260986328125	0.996594970703125
43	1.4333333333333333	-0.012659199714660644	-0.01410669994354248	0.9055150146484375	-0.023051000595092772	0.0030651700496673578	0.9271389770507813	-0.03771540069580078	0.01849760055541992	0.9522999877929688	-0.05218069839477539	0.043976200103759765	0.9750159912109375	0.026605199813842774	0.05138449859619141	0.8581290283203125	0.007303880214691162	0.049472198486328126	0.8716950073242188	-0.012882399559020995	0.04823089981079102	0.8851489868164063	-0.043953300476074215	0.04746450042724609	0.9151630249023438	0.030061000823974608	0.08570719909667969	0.86093701171875	0.007984010219573975	0.08115789794921875	0.8706959838867188	-0.018495800018310547	0.07712359619140625	0.8832440185546875	-0.049039398193359375	0.07092340087890625	0.9163380126953125	0.02419980049133301	0.10645899963378906	0.8726799926757812	0.002458859920501709	0.10251100158691406	0.8824329833984375	-0.022265600204467773	0.0976957015991211	0.8948099975585937	-0.04937080001831055	0.08939469909667969	0.924594970703125	0.005260149955749512	0.1260960006713867	0.89227197265625	-0.01112849998474121	0.12106800079345703	0.9042119750976563	-0.026185400009155275	0.1152310028076172	0.9155	-0.045642898559570315	0.1046709976196289	0.93664599609375	-0.08342070007324219	0.06267559814453125	0.9967310180664063
44	1.4666666666666666	-0.012455900192260743	-0.013095399856567384	0.905197021484375	-0.022937599182128905	0.004017039775848389	0.9270250244140625	-0.03769160079956055	0.019356199264526367	0.9522730102539062	-0.052265201568603516	0.04471379852294922	0.9750809936523438	0.026174400329589845	0.05299729919433594	0.8575910034179688	0.0069999098777771	0.050892101287841794	0.8714600219726563	-0.013088800430297852	0.04943439865112305	0.8850250244140625	-0.04378850173950195	0.048382999420166016	0.9152030029296875	0.030129199981689454	0.08711979675292969	0.86110498046875	0.008119739532470704	0.08241770172119141	0.870843994140625	-0.01818709945678711	0.07820320129394531	0.8832869873046875	-0.04899909973144531	0.07178800201416016	0.9163489990234375	0.024404699325561524	0.10757900238037109	0.8730919799804687	0.002674890041351318	0.10354000091552734	0.88293798828125	-0.02182939910888672	0.09860189819335938	0.8949760131835938	-0.04929980087280274	0.09027079772949219	0.924718017578125	0.005290299892425537	0.12705000305175781	0.8925440063476563	-0.01107800006866455	0.12186599731445312	0.9046079711914062	-0.02618400001525879	0.11600800323486328	0.9158880004882812	-0.04572439956665039	0.10540699768066407	0.9367969970703125	-0.08342079925537109	0.06314739990234375	0.9965289916992187
45	1.5	-0.013146599769592286	-0.012256600379943848	0.9047020263671876	-0.023410600662231447	0.0047670497894287105	0.9266370239257813	-0.037951698303222654	0.020123100280761717	0.9521119995117188	-0.05227239990234375	0.04546200180053711	0.974947021484375	0.025704200744628907	0.05400979995727539	0.8571079711914062	0.006567269802093506	0.05189120101928711	0.87118798828125	-0.013423800468444824	0.05037710189819336	0.8848469848632813	-0.04395920181274414	0.049255599975585936	0.9151950073242188	0.0300177001953125	0.0880258026123047	0.8610440063476562	0.008059490203857421	0.08332440185546874	0.87089501953125	-0.018282499313354492	0.07913459777832031	0.88347900390625	-0.04908359909057617	0.07266310119628906	0.9164600219726563	0.02454330062866211	0.10823500061035156	0.8733900146484375	0.002878839969635009	0.1042030029296875	0.8830919799804687	-0.021989999771118166	0.09943280029296875	0.89527099609375	-0.04936880111694336	0.091018798828125	0.92460400390625	0.005619810104370117	0.12787100219726563	0.8929299926757812	-0.010891300201416015	0.12270400238037109	0.9049089965820313	-0.025986799240112303	0.11683000183105469	0.9161400146484375	-0.045696998596191404	0.10615499877929688	0.936864013671875	-0.08364450073242187	0.06377989959716797	0.9965880126953125
46	1.5333333333333334	-0.013681799888610839	-0.011376399993896485	0.9042260131835937	-0.02388719940185547	0.00564447021484375	0.9263079833984375	-0.03833489990234375	0.020859399795532228	0.951823974609375	-0.052619998931884765	0.04625690078735351	0.9749290161132812	0.024942699432373046	0.055029598236083985	0.8564959716796875	0.005988080024719239	0.05283480072021484	0.8707109985351562	-0.013906299591064453	0.051338199615478516	0.8845980224609375	-0.04418930053710937	0.05007619857788086	0.9151209716796875	0.029499399185180665	0.08908260345458985	0.8609299926757813	0.0075867300033569335	0.08430439758300781	0.8708579711914063	-0.018767900466918945	0.08007379913330079	0.8835150146484375	-0.04942610168457031	0.0735177001953125	0.9164949951171875	0.024100400924682616	0.10915599822998047	0.873291015625	0.002419919967651367	0.10513400268554687	0.8831680297851563	-0.022356000900268555	0.10036499786376953	0.8953510131835938	-0.04984030151367187	0.09183750152587891	0.92464697265625	0.005301330089569092	0.12849200439453126	0.893073974609375	-0.011095000267028808	0.12347499847412109	0.9050479736328125	-0.026279199600219728	0.11763800048828126	0.9162890014648437	-0.046035701751708985	0.10693099975585937	0.9371309814453125	-0.08392949676513672	0.06447440338134766	0.9967860107421875
47	1.5666666666666667	-0.013854900360107421	-0.01046500015258789	0.9038569946289062	-0.024074100494384767	0.006380199909210205	0.926010009765625	-0.03852180099487305	0.021569000244140626	0.9517420043945313	-0.052826801300048826	0.046799098968505856	0.974958984375	0.02465130043029785	0.05609939956665039	0.8565079956054688	0.005733920097351074	0.05383290100097656	0.8706580200195313	-0.014262499809265137	0.0522588005065918	0.884427978515625	-0.04467129898071289	0.05079790115356445	0.9149130249023437	0.029350400924682617	0.09009590148925781	0.8613920288085938	0.007349110126495361	0.08529889678955078	0.8710360107421875	-0.01929520034790039	0.08100070190429688	0.8833720092773437	-0.04991899871826172	0.07425170135498046	0.9163519897460938	0.024014699935913087	0.10998899841308593	0.8739210205078125	0.002378839969635009	0.10597699737548828	0.8834299926757813	-0.02268709945678711	0.10121700286865234	0.8954219970703124	-0.05025180053710938	0.09256580352783203	0.924801025390625	0.005186470031738282	0.1291529998779297	0.893302001953125	-0.01135569953918457	0.12416500091552735	0.9052080078125	-0.02648579978942871	0.11829100036621094	0.9163330078125	-0.04634109878540039	0.10756800079345703	0.9371859741210937	-0.08403119659423829	0.06490409851074219	0.9966220092773438
